<?xml version="1.0" standalone="no"?><!DOCTYPE svg PUBLIC "-//W3C//DTD SVG 1.1//EN" "http://www.w3.org/Graphics/SVG/1.1/DTD/svg11.dtd"><svg class="icon" width="16px" height="16.00px" viewBox="0 0 1024 1024" version="1.1" xmlns="http://www.w3.org/2000/svg"><path d="M912.477532 285.782815 111.521444 285.782815c-28.53694 0-51.674916 23.136953-51.674916 51.674916l0 310.047452c0 28.53694 23.136953 51.674916 51.674916 51.674916l800.956088 0c28.53694 0 51.673893-23.137976 51.673893-51.674916L964.151425 337.457732C964.151425 308.920792 941.014472 285.782815 912.477532 285.782815zM951.233208 647.505183c0 21.403472-17.347087 38.755676-38.755676 38.755676L111.521444 686.260859c-21.408589 0-38.756699-17.352203-38.756699-38.755676L72.764746 337.457732c0-21.402449 17.347087-38.755676 38.756699-38.755676l800.956088 0c21.408589 0 38.755676 17.353227 38.755676 38.755676L951.233208 647.505183z" fill="#FFF" /></svg>