<?xml version="1.0" standalone="no"?><!DOCTYPE svg PUBLIC "-//W3C//DTD SVG 1.1//EN" "http://www.w3.org/Graphics/SVG/1.1/DTD/svg11.dtd"><svg class="icon" width="16px" height="16.00px" viewBox="0 0 1024 1024" version="1.1" xmlns="http://www.w3.org/2000/svg"><path d="M19.199 949.626c258.083-79.467 505.199-218.608 657.261-462.896 43.449-69.816 83.358-154.938 98.591-241.531-24.626 20.586-49.253 41.169-73.881 61.756-26.847 22.431-117.062-7.386-80.564-37.899 62.082-51.894 124.186-103.789 186.27-155.662 23.226-19.417 70.927-15.515 86.499 15.186 40.587 80.156 81.195 160.277 121.78 240.421 19.136 37.769-74.63 42.653-92.422 7.534-18.377-36.287-36.767-72.585-55.155-108.885-18.329 89.513-61.802 176.142-106.922 248.609-153.743 247.022-416.245 385.953-675.53 465.793-21.053 6.472-111.745-18.32-65.926-32.431v0 0z" fill="#ffffff" /></svg>