<?xml version="1.0" standalone="no"?><!DOCTYPE svg PUBLIC "-//W3C//DTD SVG 1.1//EN" "http://www.w3.org/Graphics/SVG/1.1/DTD/svg11.dtd"><svg class="icon" width="16px" height="16.00px" viewBox="0 0 1024 1024" version="1.1" xmlns="http://www.w3.org/2000/svg"><path d="M512.000512 869.524766c-30.804586 0-60.832484-2.775206-90.023316-7.633864L210.986807 989.921857 210.986807 776.809131C100.979344 699.564863 30.390659 581.127404 30.390659 448.113971c0-232.711086 215.623919-421.410795 481.609853-421.410795 265.985934 0 481.608829 188.69971 481.608829 421.410795C993.608318 680.867012 777.986445 869.524766 512.000512 869.524766zM512.000512 86.922698c-232.731552 0-421.410795 161.714102-421.410795 361.192296 0 122.397654 71.201645 230.384088 179.861414 295.706839l-1.899256 139.625014 141.689023-85.162612c32.640398 6.939039 66.609047 11.063987 101.759615 11.063987 232.731552 0 421.410795-161.714102 421.410795-361.233228C933.410284 248.635777 744.732064 86.922698 512.000512 86.922698zM722.704374 418.025699 301.294602 418.025699c-16.616446 0-30.109762-13.472849-30.109762-30.089295s13.493316-30.130228 30.109762-30.130228l421.409772 0c16.617469 0 30.090319 13.513782 30.090319 30.130228S739.321844 418.025699 722.704374 418.025699zM361.493659 538.423813l301.011658 0c16.617469 0 30.090319 13.471826 30.090319 30.087249 0 16.655332-13.472849 30.129204-30.090319 30.129204L361.493659 598.640266c-16.616446 0-30.089295-13.473873-30.089295-30.129204C331.404364 551.895639 344.87619 538.423813 361.493659 538.423813z" fill="#2c2c2c" /></svg>